<?xml version="1.0" encoding="iso-8859-1"?>
<!-- Uploaded to: SVG Repo, www.svgrepo.com, Generator: SVG Repo Mixer Tools -->
<svg height="800px" width="800px" version="1.1" id="Layer_1" xmlns="http://www.w3.org/2000/svg" xmlns:xlink="http://www.w3.org/1999/xlink" 
	 viewBox="0 0 512 512" xml:space="preserve">
<g transform="translate(1 1)">
	<g>
		<path style="fill:#FFDD09;" d="M161.133,255h-102.4c28.16,0,51.2,30.72,51.2,68.267C109.933,285.72,132.973,255,161.133,255"/>
		<path style="fill:#FFDD09;" d="M109.933,323.267c0,37.547-23.04,68.267-51.2,68.267h102.4
			C132.973,391.533,109.933,360.813,109.933,323.267"/>
		<path style="fill:#FFDD09;" d="M468.333,255c18.773,0,34.133,30.72,34.133,68.267s-15.36,68.267-34.133,68.267h-307.2
			c28.16,0,51.2-30.72,51.2-68.267S189.293,255,161.133,255H468.333z"/>
		<path style="fill:#FFDD09;" d="M434.2,118.467c18.773,0,34.133,30.72,34.133,68.267S452.973,255,434.2,255H109.933
			c28.16,0,51.2-30.72,51.2-68.267s-23.04-68.267-51.2-68.267H434.2z"/>
	</g>
	<g>
		<path style="fill:#FD9808;" d="M434.2,118.467h-25.6c18.773,0,34.133,30.72,34.133,68.267S427.373,255,408.6,255h25.6
			c18.773,0,34.133-30.72,34.133-68.267S452.973,118.467,434.2,118.467"/>
		<path style="fill:#FD9808;" d="M468.333,255h-25.6c18.773,0,34.133,30.72,34.133,68.267s-15.36,68.267-34.133,68.267h25.6
			c18.773,0,34.133-30.72,34.133-68.267S487.107,255,468.333,255"/>
	</g>
	<path style="fill:#FFDD09;" d="M109.933,323.267c0,37.547-23.04,68.267-51.2,68.267s-51.2-30.72-51.2-68.267S30.573,255,58.733,255
		S109.933,285.72,109.933,323.267"/>
	<path style="fill:#FFFFFF;" d="M33.133,323.267c0-31.573,16.213-58.027,38.4-65.707C67.267,255.853,63,255,58.733,255
		c-28.16,0-51.2,30.72-51.2,68.267s23.04,68.267,51.2,68.267c4.267,0,8.533-0.853,12.8-2.56
		C49.347,381.293,33.133,354.84,33.133,323.267"/>
	<path style="fill:#FFDD09;" d="M161.133,186.733c0,37.547-23.04,68.267-51.2,68.267s-51.2-30.72-51.2-68.267
		s23.04-68.267,51.2-68.267S161.133,149.187,161.133,186.733"/>
	<path style="fill:#FFFFFF;" d="M84.333,186.733c0-31.573,16.213-58.027,38.4-65.707c-4.267-1.707-8.533-2.56-12.8-2.56
		c-28.16,0-51.2,30.72-51.2,68.267S81.773,255,109.933,255c4.267,0,8.533-0.853,12.8-2.56
		C100.547,244.76,84.333,218.307,84.333,186.733"/>
	<path style="fill:#FFDD09;" d="M109.933,323.267c0-37.547,23.04-68.267,51.2-68.267s51.2,30.72,51.2,68.267
		s-23.04,68.267-51.2,68.267S109.933,360.813,109.933,323.267"/>
	<path d="M425.667,161.133h-51.2c-5.12,0-8.533-3.413-8.533-8.533s3.413-8.533,8.533-8.533h51.2c5.12,0,8.533,3.413,8.533,8.533
		S430.787,161.133,425.667,161.133z"/>
	<path d="M340.333,229.4h-93.867c-5.12,0-8.533-3.413-8.533-8.533c0-5.12,3.413-8.533,8.533-8.533h93.867
		c5.12,0,8.533,3.413,8.533,8.533C348.867,225.987,345.453,229.4,340.333,229.4z"/>
	<path d="M434.2,229.4H383c-5.12,0-8.533-3.413-8.533-8.533c0-5.12,3.413-8.533,8.533-8.533h51.2c5.12,0,8.533,3.413,8.533,8.533
		C442.733,225.987,439.32,229.4,434.2,229.4z"/>
	<path d="M417.133,195.267h-25.6c-5.12,0-8.533-3.413-8.533-8.533c0-5.12,3.413-8.533,8.533-8.533h25.6
		c5.12,0,8.533,3.413,8.533,8.533C425.667,191.853,422.253,195.267,417.133,195.267z"/>
	<path d="M212.333,161.133h-25.6c-5.12,0-8.533-3.413-8.533-8.533s3.413-8.533,8.533-8.533h25.6c5.12,0,8.533,3.413,8.533,8.533
		S217.453,161.133,212.333,161.133z"/>
	<path d="M203.8,229.4h-17.067c-5.12,0-8.533-3.413-8.533-8.533c0-5.12,3.413-8.533,8.533-8.533H203.8
		c5.12,0,8.533,3.413,8.533,8.533C212.333,225.987,208.92,229.4,203.8,229.4z"/>
	<path d="M348.867,195.267h-25.6c-5.12,0-8.533-3.413-8.533-8.533c0-5.12,3.413-8.533,8.533-8.533h25.6
		c5.12,0,8.533,3.413,8.533,8.533C357.4,191.853,353.987,195.267,348.867,195.267z"/>
	<path d="M331.8,161.133H255c-5.12,0-8.533-3.413-8.533-8.533s3.413-8.533,8.533-8.533h76.8c5.12,0,8.533,3.413,8.533,8.533
		S336.92,161.133,331.8,161.133z"/>
	<path d="M280.6,195.267h-76.8c-5.12,0-8.533-3.413-8.533-8.533c0-5.12,3.413-8.533,8.533-8.533h76.8
		c5.12,0,8.533,3.413,8.533,8.533C289.133,191.853,285.72,195.267,280.6,195.267z"/>
	<path d="M459.8,297.667h-51.2c-5.12,0-8.533-3.413-8.533-8.533c0-5.12,3.413-8.533,8.533-8.533h51.2
		c5.12,0,8.533,3.413,8.533,8.533C468.333,294.253,464.92,297.667,459.8,297.667z"/>
	<path d="M383,365.933h-93.867c-5.12,0-8.533-3.413-8.533-8.533s3.413-8.533,8.533-8.533H383c5.12,0,8.533,3.413,8.533,8.533
		S388.12,365.933,383,365.933z"/>
	<path d="M459.8,365.933h-42.667c-5.12,0-8.533-3.413-8.533-8.533s3.413-8.533,8.533-8.533H459.8c5.12,0,8.533,3.413,8.533,8.533
		S464.92,365.933,459.8,365.933z"/>
	<path d="M434.2,331.8h-17.067c-5.12,0-8.533-3.413-8.533-8.533c0-5.12,3.413-8.533,8.533-8.533H434.2
		c5.12,0,8.533,3.413,8.533,8.533C442.733,328.387,439.32,331.8,434.2,331.8z"/>
	<path d="M263.533,297.667h-25.6c-5.12,0-8.533-3.413-8.533-8.533c0-5.12,3.413-8.533,8.533-8.533h25.6
		c5.12,0,8.533,3.413,8.533,8.533C272.067,294.253,268.653,297.667,263.533,297.667z"/>
	<path d="M255,365.933h-17.067c-5.12,0-8.533-3.413-8.533-8.533s3.413-8.533,8.533-8.533H255c5.12,0,8.533,3.413,8.533,8.533
		S260.12,365.933,255,365.933z"/>
	<path d="M383,331.8h-25.6c-5.12,0-8.533-3.413-8.533-8.533c0-5.12,3.413-8.533,8.533-8.533H383c5.12,0,8.533,3.413,8.533,8.533
		C391.533,328.387,388.12,331.8,383,331.8z"/>
	<path d="M374.467,297.667h-76.8c-5.12,0-8.533-3.413-8.533-8.533c0-5.12,3.413-8.533,8.533-8.533h76.8
		c5.12,0,8.533,3.413,8.533,8.533C383,294.253,379.587,297.667,374.467,297.667z"/>
	<path d="M314.733,331.8h-51.2c-5.12,0-8.533-3.413-8.533-8.533c0-5.12,3.413-8.533,8.533-8.533h51.2
		c5.12,0,8.533,3.413,8.533,8.533C323.267,328.387,319.853,331.8,314.733,331.8z"/>
	<path d="M58.733,400.067c-33.28,0-59.733-34.133-59.733-76.8s26.453-76.8,59.733-76.8s59.733,34.133,59.733,76.8
		S92.013,400.067,58.733,400.067z M58.733,263.533c-23.893,0-42.667,26.453-42.667,59.733S34.84,383,58.733,383
		s42.667-26.453,42.667-59.733S82.627,263.533,58.733,263.533z"/>
	<path d="M161.133,400.067c-33.28,0-59.733-34.133-59.733-76.8s26.453-76.8,59.733-76.8s59.733,34.133,59.733,76.8
		S194.413,400.067,161.133,400.067z M161.133,263.533c-23.893,0-42.667,26.453-42.667,59.733S137.24,383,161.133,383
		s42.667-26.453,42.667-59.733S185.027,263.533,161.133,263.533z"/>
	<path d="M109.933,263.533c-33.28,0-59.733-34.133-59.733-76.8s26.453-76.8,59.733-76.8s59.733,34.133,59.733,76.8
		S143.213,263.533,109.933,263.533z M109.933,127c-23.893,0-42.667,26.453-42.667,59.733s18.773,59.733,42.667,59.733
		s42.667-26.453,42.667-59.733S133.827,127,109.933,127z"/>
	<path d="M118.467,323.267H101.4c0-33.28-18.773-59.733-42.667-59.733v-17.067h102.4v17.067
		C137.24,263.533,118.467,289.987,118.467,323.267z M96.28,263.533c5.12,5.973,10.24,12.8,13.653,20.48
		c3.413-7.68,8.533-14.507,13.653-20.48H96.28z"/>
	<path d="M161.133,400.067h-102.4V383c23.893,0,42.667-26.453,42.667-59.733h17.067c0,33.28,18.773,59.733,42.667,59.733V400.067z
		 M96.28,383h27.307c-5.12-5.973-10.24-12.8-13.653-20.48C106.52,370.2,101.4,377.027,96.28,383z"/>
	<path d="M468.333,400.067h-307.2V383c23.893,0,42.667-26.453,42.667-59.733s-18.773-59.733-42.667-59.733v-17.067h307.2
		c24.747,0,42.667,33.28,42.667,76.8S493.08,400.067,468.333,400.067z M198.68,383h269.653c11.947,0,25.6-25.6,25.6-59.733
		s-13.653-59.733-25.6-59.733H198.68c13.653,14.507,22.187,35.84,22.187,59.733C220.867,347.16,212.333,368.493,198.68,383z"/>
	<path d="M434.2,263.533H109.933v-17.067c23.893,0,42.667-26.453,42.667-59.733S133.827,127,109.933,127v-17.067H434.2
		c24.747,0,42.667,33.28,42.667,76.8S458.947,263.533,434.2,263.533z M147.48,246.467H434.2c11.947,0,25.6-25.6,25.6-59.733
		S446.147,127,434.2,127H147.48c13.653,14.507,22.187,35.84,22.187,59.733S161.133,231.96,147.48,246.467z"/>
	<path d="M58.733,348.867c-5.12,0-8.533-3.413-8.533-8.533V306.2c0-5.12,3.413-8.533,8.533-8.533s8.533,3.413,8.533,8.533v34.133
		C67.267,345.453,63.853,348.867,58.733,348.867z"/>
	<path d="M161.133,348.867c-5.12,0-8.533-3.413-8.533-8.533V306.2c0-5.12,3.413-8.533,8.533-8.533c5.12,0,8.533,3.413,8.533,8.533
		v34.133C169.667,345.453,166.253,348.867,161.133,348.867z"/>
	<path d="M109.933,212.333c-5.12,0-8.533-3.413-8.533-8.533v-34.133c0-5.12,3.413-8.533,8.533-8.533s8.533,3.413,8.533,8.533V203.8
		C118.467,208.92,115.053,212.333,109.933,212.333z"/>
</g>
</svg>